# xmcd
#
# Track frame offsets:
#	183
#	17740
#	35400
#
# Disc length: 736 seconds
#
# Revision: 0
# Processed by: cddbd v1.4PL0 Copyright (c) Steve Scherf et al.
# Submitted via: audiograbber 1.80.04
#
DISCID=1a02de03
DTITLE=Garth Brooks - Standing Outside The Fire Cds Part 1 of 2
DYEAR=1994
DGENRE=Country
TTITLE0=Standing Outside The Fire
TTITLE1=The Night Will Only Know
TTITLE2=Dixie Chicken
EXTD=Part 1 of a 2 CD Set
EXTT0=
EXTT1=
EXTT2=
PLAYORDER=
